# xmcd
#
# Track frame offsets: 
#        150
#        26475
#        43574
#        60097
#        83820
#        106701
#        121702
#        136806
#        151560
#        176843
#
# Disc length: 2481 seconds
#
# Revision: 0
# Processed by: cddbd v1.5.2PL0 Copyright (c) Steve Scherf et al.
# Submitted via: ExactAudioCopy v0.99pb5
#
DISCID=6509af0a
DTITLE=The Moody Blues  - Days of Future Passed (1967)  (Original Ster
DTITLE=eo Mix Master Edition) 
DYEAR=1900
DGENRE=
TTITLE0=The Day Begins - Morning Glory
TTITLE1=Dawn: Dawn Is A Feeling
TTITLE2=The Morning: Another Morning
TTITLE3=Lunch Break: Peak Hour
TTITLE4=The Afternoon: Tuesday Afternoon
TTITLE5=Evening: Evening Time To Get Away
TTITLE6=Evening: The Sunset
TTITLE7=Evening: Twilight Time
TTITLE8=The Night: Nights In White Satin
TTITLE9=The Night: Late Lament
EXTD=
EXTT0=
EXTT1=
EXTT2=
EXTT3=
EXTT4=
EXTT5=
EXTT6=
EXTT7=
EXTT8=
EXTT9=
PLAYORDER=
